<?xml version="1.0" standalone="no"?><!DOCTYPE svg PUBLIC "-//W3C//DTD SVG 1.1//EN" "http://www.w3.org/Graphics/SVG/1.1/DTD/svg11.dtd"><svg t="1554944500597" class="icon" style="" viewBox="0 0 1024 1024" version="1.1" xmlns="http://www.w3.org/2000/svg" p-id="7478" xmlns:xlink="http://www.w3.org/1999/xlink" width="64" height="64"><defs><style type="text/css"></style></defs><path d="M484.522667 650.837333a28.444444 28.444444 0 1 0 56.888889 0V286.037333a28.444444 28.444444 0 1 0-56.888889 0v364.8z" fill="#ffffff" p-id="7479"></path><path d="M512.654222 632.803556a63.715556 63.715556 0 1 0 0-127.431112 63.715556 63.715556 0 0 0 0 127.431112z" fill="#ffffff" p-id="7480"></path><path d="M158.919111 330.524444c-131.754667 195.356444-80.213333 460.515556 115.143111 592.298667 195.356444 131.783111 460.544 80.213333 592.298667-115.143111a426.638222 426.638222 0 0 0 15.160889-453.176889 28.444444 28.444444 0 1 0-49.180445 28.586667 369.777778 369.777778 0 0 1-13.141333 392.789333c-114.176 169.301333-344.007111 213.987556-513.336889 99.783111C136.561778 761.457778 91.904 531.626667 206.08 362.325333c106.040889-157.212444 313.514667-208.298667 479.658667-120.035555a28.444444 28.444444 0 1 0 26.680889-50.232889C520.647111 90.168889 281.315556 149.105778 158.919111 330.524444z" fill="#ffffff" p-id="7481"></path><path d="M483.555556 85.333333v85.333334a28.444444 28.444444 0 0 0 56.888888 0V85.333333a28.444444 28.444444 0 0 0-56.888888 0z" fill="#ffffff" p-id="7482"></path><path d="M554.666667 42.666667h-85.333334a28.444444 28.444444 0 0 0 0 56.888889h85.333334a28.444444 28.444444 0 0 0 0-56.888889zM833.194667 191.175111l-58.197334 62.407111a28.444444 28.444444 0 0 0 41.585778 38.798222l58.197333-62.407111a28.444444 28.444444 0 0 0-41.585777-38.798222z" fill="#ffffff" p-id="7483"></path></svg>