<?xml version="1.0" standalone="no"?><!DOCTYPE svg PUBLIC "-//W3C//DTD SVG 1.1//EN" "http://www.w3.org/Graphics/SVG/1.1/DTD/svg11.dtd"><svg t="1557557861238" class="icon" style="" viewBox="0 0 1024 1024" version="1.1" xmlns="http://www.w3.org/2000/svg" p-id="3231" xmlns:xlink="http://www.w3.org/1999/xlink" width="48" height="48"><defs><style type="text/css"></style></defs><path d="M729.6 395.1c5.5 0 11 0.1 16.4 0.4 0.5-6.3 0.8-12.7 0.8-19.2C746.9 221 592 94.6 401.7 94.6S56.5 221 56.5 376.3c0 57.4 21.2 112.7 61.4 159.9 21.4 25.2 11.8 61 1.6 98.9-0.5 2-1.1 4.2-1.8 6.6 3.8-1.9 7.5-3.8 10.6-5.4 31.7-16.3 52.2-26.2 70.2-26.2 7.1 0 13.7 1.5 19.6 4.6 55 28.4 118.4 43.4 183.6 43.4 11.7 0 23.2-0.5 34.5-1.4 0.9-144.3 132.1-261.6 293.4-261.6zM519 282.8c1.1-0.3 2.3-0.4 3.5-0.4 1.2 0 2.4 0.1 3.5 0.4 7.9 1.8 13.8 9.3 13.8 18.4 0 8.4-5.1 15.6-12.1 17.9-1.6 0.5-3.3 0.8-5.1 0.8s-3.5-0.3-5.1-0.8c-7-2.4-12.1-9.5-12.1-17.9-0.2-9.1 5.8-16.6 13.6-18.4z m-198.5 36.3c-1.6 0.5-3.3 0.8-5.1 0.8s-3.5-0.3-5.1-0.8c-7-2.4-12.1-9.5-12.1-17.9 0-9.1 5.9-16.7 13.8-18.4 1.1-0.3 2.3-0.4 3.5-0.4 1.2 0 2.4 0.1 3.5 0.4 7.9 1.8 13.8 9.3 13.8 18.4-0.1 8.4-5.2 15.6-12.3 17.9z" fill="#FFFFFF" p-id="3232"></path><path d="M401.7 676.9c-67.7 0-133.8-15.6-191-45.2-3.6-1.8-7.7-2.8-12.2-2.8-14.4 0-33.3 9.2-62.8 24.4-13.7 7.1-33.5 17.2-43.7 20.1 1.3-8 7.2-29.8 10.9-43.4 9.2-34.1 17.1-63.5 2.3-80.9-43.2-50.8-66-110.5-66-172.7 0-165.7 162.6-300.6 362.4-300.6S764 210.6 764 376.4c0 6.9-0.3 13.7-0.9 20.5 5.8 0.6 11.5 1.3 17.2 2.2 0.6-7.5 1-15.1 1-22.7C781.4 200 611.4 57 401.7 57S22 200 22 376.3c0 69.2 26.1 133.2 70.5 185.5 17 20-32.4 113.4-10.5 129.6 1.4 1 3.3 1.5 5.7 1.5 23.1 0 87.7-45.2 110.8-45.2 1.9 0 3.5 0.3 4.8 1 57.7 29.8 125.7 47 198.4 47 12.6 0 25-0.5 37.3-1.5-0.9-6.2-1.7-12.4-2.1-18.7-11.6 0.9-23.3 1.4-35.2 1.4z" fill="" p-id="3233"></path><path d="M436.2 656.7c-11.4 0.9-22.9 1.4-34.5 1.4-65.1 0-128.6-15-183.6-43.4-5.9-3.1-12.5-4.6-19.6-4.6-18 0-38.5 9.9-70.2 26.2-3.1 1.6-6.8 3.5-10.6 5.4 0.6-2.3 1.2-4.6 1.8-6.6 10.2-37.9 19.8-73.7-1.6-98.9C77.7 489 56.5 433.7 56.5 376.3 56.5 221 211.4 94.6 401.7 94.6S746.9 221 746.9 376.3c0 6.5-0.3 12.9-0.8 19.2 5.8 0.3 11.5 0.7 17.2 1.3 0.6-6.8 0.9-13.6 0.9-20.5 0-165.7-162.6-300.6-362.4-300.6S39.3 210.6 39.3 376.3c0 62.2 22.8 121.9 66 172.7 14.8 17.4 6.9 46.9-2.3 80.9-3.7 13.6-9.5 35.4-10.9 43.4 10.2-2.8 30-13 43.7-20.1 29.5-15.2 48.4-24.4 62.8-24.4 4.5 0 8.6 0.9 12.2 2.8 57.2 29.6 123.2 45.2 191 45.2 11.9 0 23.6-0.5 35.2-1.4-0.4-5.7-0.7-11.5-0.7-17.4-0.1-0.3-0.1-0.8-0.1-1.3z" fill="" p-id="3234"></path><path d="M320.5 319.1c7-2.4 12.1-9.5 12.1-17.9 0.1 8.4-5 15.6-12.1 17.9zM318.9 282.8c7.9 1.8 13.8 9.3 13.8 18.4 0-9.1-6-16.6-13.8-18.4zM311.9 282.8c-7.9 1.8-13.8 9.3-13.8 18.4 0-9.1 6-16.6 13.8-18.4zM298.1 301.2c0 8.4 5.1 15.6 12.1 17.9-7-2.3-12.1-9.5-12.1-17.9z" fill="" p-id="3235"></path><path d="M318.9 282.8c-1.1-0.3-2.3-0.4-3.5-0.4-1.2 0-2.4 0.1-3.5 0.4-7.9 1.8-13.8 9.3-13.8 18.4 0 8.4 5.1 15.6 12.1 17.9 1.6 0.5 3.3 0.8 5.1 0.8s3.5-0.3 5.1-0.8c7-2.4 12.1-9.5 12.1-17.9 0.2-9.1-5.8-16.6-13.6-18.4zM519 282.8c-7.9 1.8-13.8 9.3-13.8 18.4 0-9.1 6-16.6 13.8-18.4zM527.6 319.1c7-2.4 12.1-9.5 12.1-17.9 0.1 8.4-5 15.6-12.1 17.9zM539.8 301.2c0-9.1-5.9-16.7-13.8-18.4 7.8 1.8 13.8 9.3 13.8 18.4zM517.4 319.1c-7-2.4-12.1-9.5-12.1-17.9-0.1 8.4 5 15.6 12.1 17.9z" fill="" p-id="3236"></path><path d="M517.4 319.1c1.6 0.5 3.3 0.8 5.1 0.8s3.5-0.3 5.1-0.8c7-2.4 12.1-9.5 12.1-17.9 0-9.1-5.9-16.7-13.8-18.4-1.1-0.3-2.3-0.4-3.5-0.4-1.2 0-2.4 0.1-3.5 0.4-7.9 1.8-13.8 9.3-13.8 18.4 0.1 8.4 5.2 15.6 12.3 17.9z" fill="" p-id="3237"></path><path d="M473.3 690c17.8 109.3 125.9 193.6 256.3 193.6 42.2 0 84.1-9.1 121.1-26.2 2.9-1.4 5.8-2 8.6-2 13.9 0 27.8 14.6 46 33.5 2.5 2.6 5.5 5.8 8.6 8.9-0.7-6.4-1.5-13-2.2-18.1-4.2-33.1-6.9-55 5.5-66.3 45.9-42.1 71.2-97.2 71.2-155.2 0-110.9-92.5-203.4-213.8-222C745.8 564.4 625.7 665.5 473.3 690z m320.2-143.7c1.6-0.5 3.3-0.8 5.1-0.8 0-10.4 7.7-18.8 17.3-18.8s17.3 8.4 17.3 18.8-7.7 18.8-17.3 18.8c0 9.1-5.9 16.7-13.8 18.4-1.1 0.3-2.3 0.4-3.5 0.4-1.2 0-2.4-0.1-3.5-0.4-7.9-1.8-13.8-9.3-13.8-18.4 0.1-8.5 5.2-15.7 12.2-18z" fill="#FFFFFF" p-id="3238"></path><path d="M739.9 432.9c-3.4-0.1-6.8-0.2-10.3-0.2-140.6 0-255.3 98.1-258.8 219.7C605.7 630 712.3 543 739.9 432.9z m-96.6 131.3c0 9.1-5.9 16.7-13.8 18.4-1.1 0.3-2.3 0.4-3.5 0.4-1.2 0-2.4-0.1-3.5-0.4-7.9-1.8-13.8-9.3-13.8-18.4 0-8.4 5.1-15.6 12.1-17.9 1.6-0.5 3.3-0.8 5.1-0.8 0-10.4 7.7-18.8 17.3-18.8s17.3 8.4 17.3 18.8-7.7 18.7-17.2 18.7z" fill="#FFFFFF" p-id="3239"></path><path d="M471.2 671.3c0.4 6.3 1.1 12.5 2.1 18.7 152.4-24.5 272.5-125.6 301.4-253.9-5.7-0.9-11.5-1.6-17.3-2.1-28.1 119.6-142 214-286.2 237.3z" fill="#FFFFFF" p-id="3240"></path><path d="M470.8 652.4c-0.1 1.9-0.1 3.8-0.1 5.7 0 4.4 0.2 8.8 0.5 13.2C615.4 648 729.3 553.6 757.4 434c-5.8-0.5-11.6-0.9-17.5-1.1C712.3 543 605.7 630 470.8 652.4z" fill="#FFFFFF" p-id="3241"></path><path d="M620.9 546.3c-7 2.4-12.1 9.5-12.1 17.9 0-8.4 5.1-15.6 12.1-17.9zM608.8 564.2c0 9.1 5.9 16.7 13.8 18.4-7.9-1.8-13.8-9.3-13.8-18.4zM629.5 582.6c7.9-1.8 13.8-9.3 13.8-18.4 0 9.1-5.9 16.6-13.8 18.4z" fill="#FFFFFF" p-id="3242"></path><path d="M626.1 545.4c-1.8 0-3.5 0.3-5.1 0.8-7 2.4-12.1 9.5-12.1 17.9 0 9.1 5.9 16.7 13.8 18.4 1.1 0.3 2.3 0.4 3.5 0.4 1.2 0 2.4-0.1 3.5-0.4 7.9-1.8 13.8-9.3 13.8-18.4-9.7 0.1-17.4-8.3-17.4-18.7zM793.5 546.3c-7 2.4-12.1 9.5-12.1 17.9 0-8.4 5.1-15.6 12.1-17.9zM795.2 582.6c-7.9-1.8-13.8-9.3-13.8-18.4 0 9.1 5.9 16.7 13.8 18.4zM802.1 582.6c7.9-1.8 13.8-9.3 13.8-18.4 0 9.1-5.9 16.6-13.8 18.4z" fill="#FFFFFF" p-id="3243"></path><path d="M795.2 582.6c1.1 0.3 2.3 0.4 3.5 0.4 1.2 0 2.4-0.1 3.5-0.4 7.9-1.8 13.8-9.3 13.8-18.4-9.5 0-17.3-8.4-17.3-18.8-1.8 0-3.5 0.3-5.1 0.8-7 2.4-12.1 9.5-12.1 17.9-0.1 9.2 5.8 16.7 13.7 18.5z" fill="#FFFFFF" p-id="3244"></path><path d="M1023 658.1c0-129.5-104.9-237.4-242.6-259-0.5 6.3-1.2 12.5-2.2 18.6 129.3 20.3 227.5 120.2 227.5 240.4 0 65.8-29.5 125.6-77.3 169.5-10.6 9.7 12.5 93.7 0.3 101.8-11.6 7.6-58.3-60.7-71.2-54.8-38.2 17.7-81.7 27.7-127.9 27.7-139.3 0-254.6-91.3-273.4-209.9-5.7 0.7-11.4 1.3-17.2 1.8 19.7 128 142.5 227 290.6 227 44.9 0 89.5-9.3 129.5-26.9 5.7 4.4 15.9 15 22.4 21.8 17.7 18.5 31.6 33 45 33 3.7 0 7.4-1.1 11.1-3.6 16-10.5 12.8-35.8 8.4-70.9-1.4-10.8-3.5-28-3.2-35.6 51.8-49 80.2-113.1 80.2-180.9zM729.6 413.9c4.7 0 9.4 0.1 14.1 0.3 1-6.2 1.8-12.4 2.3-18.7-5.4-0.3-10.9-0.4-16.4-0.4-161.3 0-292.5 117.2-293.4 261.6 5.8-0.5 11.6-1.1 17.3-1.8 1.9-133.4 124.8-241 276.1-241z" fill="" p-id="3245"></path><path d="M761 415.5c5.8 0.6 11.5 1.3 17.2 2.2 0.9-6.1 1.7-12.4 2.2-18.6-5.7-0.9-11.4-1.6-17.2-2.2-0.5 6.2-1.2 12.4-2.2 18.6zM454 673.8c-5.7 0.7-11.4 1.3-17.2 1.7 0.5 6.3 1.2 12.5 2.1 18.7 5.8-0.5 11.5-1.1 17.2-1.8-0.9-6.1-1.6-12.4-2.1-18.6z" fill="" p-id="3246"></path><path d="M743.7 414.2c5.8 0.3 11.6 0.7 17.3 1.3 1-6.2 1.7-12.4 2.2-18.6-5.7-0.6-11.4-1-17.2-1.3-0.5 6.2-1.2 12.5-2.3 18.6zM453.5 654.9c-5.7 0.7-11.5 1.3-17.3 1.8v1.4c0 5.8 0.2 11.6 0.7 17.4 5.8-0.5 11.5-1 17.2-1.7-0.4-5.2-0.6-10.4-0.6-15.6v-3.3zM988.5 658.1c0 57.9-25.3 113-71.2 155.2-12.4 11.3-9.6 33.2-5.5 66.3 0.7 5.2 1.5 11.7 2.2 18.1-3.1-3.1-6.1-6.3-8.6-8.9-18.2-18.9-32.1-33.5-46-33.5-2.9 0-5.7 0.6-8.6 2-37 17.2-78.9 26.2-121.1 26.2-130.3 0-238.4-84.3-256.3-193.6-5.7 0.9-11.4 1.7-17.1 2.4 18.7 118.7 134 210 273.3 210 46.2 0 89.7-10 127.9-27.7 12.9-6 59.6 62.4 71.2 54.8 12.2-8-10.8-92.1-0.3-101.8 47.9-43.9 77.3-103.7 77.3-169.5 0-120.2-98.2-220.1-227.5-240.4-1 6.2-2.1 12.4-3.5 18.4 121.3 18.7 213.8 111.1 213.8 222z" fill="" p-id="3247"></path><path d="M729.6 432.7c3.4 0 6.9 0.1 10.3 0.2 1.5-6.1 2.8-12.4 3.9-18.7-4.7-0.2-9.4-0.3-14.1-0.3-151.3 0-274.2 107.6-276.1 241 5.8-0.7 11.6-1.6 17.3-2.5 3.4-121.6 118.1-219.7 258.7-219.7zM471.2 671.3c-5.7 0.9-11.4 1.7-17.1 2.4 0.4 6.3 1.2 12.5 2.1 18.6 5.8-0.7 11.5-1.5 17.1-2.4-1-6-1.7-12.3-2.1-18.6zM757.4 434c5.8 0.5 11.6 1.3 17.3 2.1 1.4-6.1 2.6-12.2 3.5-18.4-5.7-0.9-11.4-1.6-17.2-2.2-0.9 6.2-2.2 12.4-3.6 18.5z" fill="" p-id="3248"></path><path d="M739.9 432.9c5.9 0.2 11.7 0.6 17.5 1.1 1.4-6.1 2.7-12.3 3.6-18.5-5.7-0.6-11.5-1-17.3-1.3-1 6.3-2.3 12.5-3.8 18.7zM470.7 658.1c0-1.9 0-3.8 0.1-5.7-5.7 1-11.5 1.8-17.3 2.5v3.2c0 5.3 0.2 10.5 0.6 15.6 5.8-0.7 11.5-1.5 17.1-2.4-0.3-4.3-0.5-8.7-0.5-13.2zM643.3 526.6c-9.5 0-17.3 8.4-17.3 18.8 1.8 0 3.5 0.3 5.1 0.8 7 2.4 12.1 9.5 12.1 17.9 9.5 0 17.3-8.4 17.3-18.8s-7.7-18.7-17.2-18.7z" fill="" p-id="3249"></path><path d="M631.2 546.3c7 2.4 12.1 9.5 12.1 17.9 0-8.4-5.1-15.6-12.1-17.9z" fill="" p-id="3250"></path><path d="M631.2 546.3c-1.6-0.5-3.3-0.8-5.1-0.8 0 10.4 7.7 18.8 17.3 18.8-0.1-8.5-5.2-15.7-12.2-18zM815.9 564.2c9.5 0 17.3-8.4 17.3-18.8s-7.7-18.8-17.3-18.8-17.3 8.4-17.3 18.8c1.8 0 3.5 0.3 5.1 0.8 7.1 2.4 12.2 9.6 12.2 18z" fill="" p-id="3251"></path><path d="M803.8 546.3c7 2.4 12.1 9.5 12.1 17.9 0-8.4-5.1-15.6-12.1-17.9z" fill="" p-id="3252"></path><path d="M815.9 564.2c0-8.4-5.1-15.6-12.1-17.9-1.6-0.5-3.3-0.8-5.1-0.8-0.1 10.3 7.7 18.7 17.2 18.7z" fill="" p-id="3253"></path></svg>